<?xml version="1.0" standalone="no"?>
<!DOCTYPE svg PUBLIC "-//W3C//DTD SVG 20010904//EN"
 "http://www.w3.org/TR/2001/REC-SVG-20010904/DTD/svg10.dtd">
<svg version="1.0" xmlns="http://www.w3.org/2000/svg"
 width="512.000000pt" height="512.000000pt" viewBox="0 0 512.000000 512.000000"
 preserveAspectRatio="xMidYMid meet">
<metadata>
Created by potrace 1.14, written by Peter Selinger 2001-2017
</metadata>
<g transform="translate(0.000000,512.000000) scale(0.100000,-0.100000)"
fill="#000000" stroke="none">
<path d="M2450 4208 c-299 -41 -542 -268 -604 -568 -59 -281 74 -688 322 -990
67 -82 201 -210 288 -276 104 -78 133 -76 244 16 140 115 336 336 405 455 82
143 150 322 171 457 11 69 13 285 3 333 -54 258 -217 440 -480 536 -46 17 -85
30 -87 29 -1 -1 -21 1 -45 4 -84 11 -153 12 -217 4z m257 -299 c197 -65 329
-256 318 -463 -4 -89 -23 -148 -69 -225 -176 -289 -602 -294 -787 -8 -151 234
-65 548 184 671 116 57 233 65 354 25z"/>
<path d="M2436 3775 c-167 -68 -250 -258 -187 -426 24 -64 99 -149 156 -177
149 -73 325 -33 419 95 126 172 69 407 -123 500 -78 39 -182 42 -265 8z"/>
<path d="M1364 2776 c-23 -7 -61 -28 -84 -47 -64 -51 -67 -59 -190 -449 -74
-238 -166 -528 -207 -655 -19 -60 -37 -133 -40 -161 -10 -99 41 -195 134 -250
l48 -29 1516 -3 c1677 -2 1565 -7 1645 62 61 52 89 117 88 201 0 60 -15 114
-97 370 -52 165 -131 414 -176 553 -84 267 -110 323 -163 364 -71 53 -95 57
-375 58 -236 0 -262 -1 -281 -17 -38 -33 -30 -94 16 -111 16 -6 110 -10 225
-9 108 1 197 0 197 -3 0 -3 -33 -35 -72 -72 -360 -328 -367 -335 -369 -353 0
-5 -2 -18 -4 -27 -5 -26 32 -58 66 -58 23 0 44 13 87 53 31 29 77 72 102 94
50 45 62 57 210 193 57 52 109 101 117 108 26 26 23 34 143 -348 28 -91 69
-219 90 -285 163 -507 164 -512 142 -566 -6 -15 -27 -37 -48 -49 -33 -21 -50
-24 -166 -25 l-130 -1 -30 36 c-44 50 -177 197 -215 237 -36 38 -73 43 -103
13 -44 -44 -30 -71 127 -240 18 -19 33 -37 33 -40 0 -3 -439 -5 -975 -5 -536
0 -975 2 -975 5 0 3 66 97 147 210 210 296 213 300 213 330 0 54 -72 83 -110
44 -10 -11 -103 -138 -206 -284 -102 -146 -194 -274 -203 -285 -15 -20 -26
-21 -216 -20 -219 1 -244 7 -280 61 -28 44 -22 86 44 294 34 107 75 236 91
285 15 50 58 185 95 300 36 116 73 233 82 260 22 71 49 111 84 126 23 9 102
13 285 13 165 1 257 5 264 12 6 6 15 25 20 43 8 28 6 36 -15 57 l-24 24 -258
-1 c-181 0 -270 -4 -299 -13z"/>
<path d="M1758 2325 c-50 -12 -69 -39 -57 -81 10 -36 41 -53 89 -48 19 2 55 6
80 8 75 8 103 64 55 112 -21 21 -33 24 -76 22 -28 -2 -69 -7 -91 -13z"/>
<path d="M2216 2228 c-19 -27 -20 -59 -3 -80 17 -23 124 -79 155 -83 35 -4 72
30 72 65 0 32 -28 59 -97 94 -65 32 -106 34 -127 4z"/>
<path d="M1390 2161 c-33 -13 -62 -38 -81 -67 -16 -26 -17 -37 -9 -60 14 -35
26 -44 63 -44 39 0 107 68 107 108 0 41 -46 77 -80 63z"/>
<path d="M3693 2022 c-49 -31 -63 -70 -40 -106 9 -13 25 -26 35 -28 20 -6 82
19 114 45 26 21 29 62 7 92 -27 33 -63 32 -116 -3z"/>
<path d="M2678 1983 c-26 -31 -28 -40 -18 -70 8 -21 26 -37 68 -57 93 -46 108
-48 142 -19 54 45 32 88 -67 133 -75 34 -104 37 -125 13z"/>
<path d="M3249 1870 c-66 -6 -99 -30 -99 -70 0 -44 33 -65 99 -63 31 0 70 3
86 6 17 3 34 5 38 6 4 0 14 16 22 33 11 28 11 37 -1 60 -8 16 -20 29 -27 29
-34 4 -67 4 -118 -1z"/>
<path d="M1580 1020 c-27 -27 -26 -74 3 -97 22 -17 53 -18 506 -18 l483 0 19
24 c25 30 24 62 -1 89 l-21 22 -484 0 c-472 0 -486 -1 -505 -20z"/>
<path d="M2782 1020 c-28 -26 -28 -71 -1 -95 30 -28 200 -30 235 -2 30 23 32
69 4 97 -17 17 -33 20 -118 20 -85 0 -101 -3 -120 -20z"/>
<path d="M3200 1020 c-26 -26 -26 -72 1 -96 19 -17 41 -19 312 -20 246 0 296
2 320 15 15 8 27 20 28 26 0 5 2 18 4 29 2 10 -7 29 -20 42 l-24 24 -301 0
c-287 0 -301 -1 -320 -20z"/>
</g>
</svg>
